<?xml version="1.0" encoding="UTF-8" standalone="no"?>
<svg
   xmlns:dc="http://purl.org/dc/elements/1.1/"
   xmlns:cc="http://creativecommons.org/ns#"
   xmlns:rdf="http://www.w3.org/1999/02/22-rdf-syntax-ns#"
   xmlns:svg="http://www.w3.org/2000/svg"
   xmlns="http://www.w3.org/2000/svg"
   xmlns:xlink="http://www.w3.org/1999/xlink"
   id="svg2872"
   height="100"
   width="100"
   version="1.1">
  <title
     id="title4708">Octave logo plus various sciences</title>
  <metadata
     id="metadata2942">
    <rdf:RDF>
      <cc:Work
         rdf:about="">
        <dc:format>image/svg+xml</dc:format>
        <dc:type
           rdf:resource="http://purl.org/dc/dcmitype/StillImage" />
        <dc:title>Octave logo plus various sciences</dc:title>
        <dc:creator>
          <cc:Agent>
            <dc:title>Oliver Heimlich &lt;oheim@posteo.de&gt;</dc:title>
          </cc:Agent>
        </dc:creator>
        <dc:date>2018-08-29</dc:date>
        <dc:source></dc:source>
        <dc:relation>https://www.gnu.org/software/octave/img/octave-logo.svg</dc:relation>
      </cc:Work>
    </rdf:RDF>
  </metadata>
  <defs
     id="defs2874">
    <radialGradient
       gradientTransform="matrix(0.2344736,-0.25475775,0.78213743,0.84979954,-312.963,-226.36629)"
       gradientUnits="userSpaceOnUse"
       xlink:href="#linearGradient3755"
       id="radialGradient3033"
       fy="395.04871"
       fx="182.9837"
       r="148.95309"
       cy="395.04871"
       cx="182.9837" />
    <linearGradient
       id="linearGradient3755">
      <stop
         offset="0"
         style="stop-color:#008cbe;stop-opacity:1"
         id="stop3757" />
      <stop
         offset="1"
         style="stop-color:#b2ffff;stop-opacity:1"
         id="stop3759" />
    </linearGradient>
  </defs>
  <g
     transform="translate(1.8797415,-1.4825e-5)"
     id="g4596">
    <path
       style="opacity:1;fill:#ffd64b;fill-opacity:1;stroke:#ffffff;stroke-width:1.44656825;stroke-linecap:round;stroke-linejoin:round;stroke-miterlimit:4;stroke-dasharray:none;stroke-dashoffset:0;stroke-opacity:1;paint-order:fill markers stroke"
       d="m 38.640958,0.72331465 -9.479461,16.42560035 9.060021,15.6989 c 1.398189,-0.4954 2.890912,-0.742 4.418248,-0.7457 4.282209,-0.01 8.853472,1.8379 12.745621,5.3093 l 2.214332,-3.8369 9.4793,-16.4256 -9.4793,-16.42560035 z"
       id="path4501" />
    <path
       style="opacity:1;fill:#ff874b;fill-opacity:1;stroke:#ffffff;stroke-width:1.44656825;stroke-linecap:round;stroke-linejoin:round;stroke-miterlimit:4;stroke-dasharray:none;stroke-dashoffset:0;stroke-opacity:1;paint-order:fill markers stroke"
       d="m 10.202654,17.148915 -9.47938105,16.4256 9.47938105,16.4256 h 17.155072 v -4.6618 c 0,-1.0378 0.861006,-1.899 1.898944,-1.899 h 0.773979 c 0.404159,-2.8003 1.511106,-5.3885 3.385873,-7.4255 1.359243,-1.4768 3.00366,-2.5279 4.804996,-3.166 l -9.060021,-15.6989 z"
       id="path4503" />
    <path
       style="opacity:1;fill:#f0466e;fill-opacity:1;stroke:#ffffff;stroke-width:1.44656825;stroke-linecap:round;stroke-linejoin:round;stroke-miterlimit:4;stroke-dasharray:none;stroke-dashoffset:0;stroke-opacity:1;paint-order:fill markers stroke"
       d="m 10.202654,50.000115 -9.47938105,16.4256 9.47938105,16.4255 h 18.958843 l 9.479461,-16.4255 1.056189,-1.8301 c -1.192047,-0.8833 -2.335776,-1.9076 -3.404117,-3.0683 -1.473283,-1.6008 -2.699625,-3.3446 -3.675753,-5.1592 H 29.25667 c -1.037938,0 -1.898944,-0.8612 -1.898944,-1.899 v -4.469 z"
       id="path4505" />
    <path
       style="opacity:1;fill:#38bf93;fill-opacity:1;stroke:#ffffff;stroke-width:1.44656825;stroke-linecap:round;stroke-linejoin:round;stroke-miterlimit:4;stroke-dasharray:none;stroke-dashoffset:0;stroke-opacity:1;paint-order:fill markers stroke"
       d="m 39.697147,64.595615 -1.056189,1.8301 -9.479461,16.4255 9.479461,16.4255 h 18.958761 l 9.4793,-16.4255 -9.379606,-16.2527 c -5.054029,3.2639 -12.119361,2.3562 -18.002266,-2.0029 z"
       id="path4507" />
    <path
       style="opacity:1;fill:#427cbd;fill-opacity:1;stroke:#ffffff;stroke-width:1.44656825;stroke-linecap:round;stroke-linejoin:round;stroke-miterlimit:4;stroke-dasharray:none;stroke-dashoffset:0;stroke-opacity:1;paint-order:fill markers stroke"
       d="m 63.01079,50.000115 c 0.687599,2.8806 0.759882,5.7651 0.171538,8.4107 0.03009,0.1235 0.05029,0.2507 0.05029,0.3819 v 5.5165 c 0,0.8931 -0.738457,1.6315 -1.631589,1.6315 h -2.982092 c -0.298162,0.2356 -0.605012,0.4547 -0.919525,0.6578 l 9.379606,16.2527 h 18.958843 l 9.479382,-16.4255 -9.479382,-16.4256 H 67.079019 Z"
       id="path4509" />
    <path
       style="opacity:1;fill:#564dc5;fill-opacity:1;stroke:#ffffff;stroke-width:1.44656825;stroke-linecap:round;stroke-linejoin:round;stroke-miterlimit:4;stroke-dasharray:none;stroke-dashoffset:0;stroke-opacity:1;paint-order:fill markers stroke"
       d="m 67.079019,17.148915 -9.4793,16.4256 -2.214332,3.8369 c 0.06131,0.055 0.122442,0.1097 0.183404,0.1651 h 2.200528 c 0.828826,0 1.510341,0.6812 1.510341,1.5103 v 2.716 c 1.802887,2.5782 3.06005,5.3859 3.73113,8.1973 h 4.068229 18.958843 l 9.479382,-16.4256 -9.479382,-16.4256 z"
       id="path4511" />
    <path
       d="m 26.872627,26.055515 c -0.04489,-0.2106 -0.210625,-0.3764 -0.421249,-0.4212 -1.11182,-0.2383 -1.98194,-0.2383 -2.848607,-0.2383 -3.563348,0 -5.700667,1.906 -7.295887,4.4197 h -3.597877 c -0.62842,0 -1.201594,0.3556 -1.481276,0.915 l -1.7057115,3.4114 c -0.2762284,0.5525 0.1243032,1.1981 0.7423645,1.1981 h 3.283667 c -0.203718,0.442 -0.41089,0.8805 -0.621514,1.3018 -0.107038,0.214 -0.0656,0.4696 0.103586,0.6387 l 2.196017,2.1961 c 0.16919,0.1692 0.424701,0.2106 0.638778,0.1035 0.421249,-0.2106 0.859762,-0.4143 1.301727,-0.618 v 3.2837 c 0,0.6146 0.649137,1.0151 1.198142,0.7423 l 3.40797,-1.7057 c 0.562815,-0.2797 0.915007,-0.8563 0.915007,-1.4813 v -3.6048 c 2.506774,-1.5986 4.419657,-3.7429 4.419657,-7.2889 0.0035,-0.8702 0.0035,-1.7403 -0.234794,-2.8521 z m -3.628953,4.8651 c -0.915007,0 -1.657371,-0.7424 -1.657371,-1.6574 0,-0.915 0.742364,-1.6574 1.657371,-1.6574 0.915007,0 1.657371,0.7424 1.657371,1.6574 0,0.915 -0.742364,1.6574 -1.657371,1.6574 z"
       id="path4572"
       style="fill:#ffffff;fill-opacity:1;stroke-width:0.04133052" />
    <path
       d="m 81.864806,26.392615 v 14.3639 c 0,0.9153 -0.742019,1.6573 -1.657375,1.6573 h -7.734399 c -0.915351,0 -1.65737,-0.742 -1.65737,-1.6573 v -14.3639 c 0,-0.9154 0.742019,-1.6574 1.65737,-1.6574 h 7.734399 c 0.915356,0 1.657375,0.742 1.657375,1.6574 z m 3.314741,2.0026 v 0.4144 a 0.20717142,0.20717142 0 0 1 -0.20717,0.2071 h -0.621516 v 0.2072 a 0.20717142,0.20717142 0 0 1 -0.207169,0.2072 h -1.450201 v -1.6574 h 1.450201 a 0.20717142,0.20717142 0 0 1 0.207169,0.2072 v 0.2072 h 0.621516 a 0.20717142,0.20717142 0 0 1 0.20717,0.2071 z m 0,3.3148 v 0.4143 a 0.20717142,0.20717142 0 0 1 -0.20717,0.2072 h -0.621516 v 0.2072 a 0.20717142,0.20717142 0 0 1 -0.207169,0.2071 h -1.450201 v -1.6573 h 1.450201 a 0.20717142,0.20717142 0 0 1 0.207169,0.2071 v 0.2072 h 0.621516 a 0.20717142,0.20717142 0 0 1 0.20717,0.2072 z m 0,3.3147 v 0.4144 a 0.20717142,0.20717142 0 0 1 -0.20717,0.2071 h -0.621516 v 0.2072 a 0.20717142,0.20717142 0 0 1 -0.207169,0.2072 h -1.450201 v -1.6574 h 1.450201 a 0.20717142,0.20717142 0 0 1 0.207169,0.2072 v 0.2071 h 0.621516 a 0.20717142,0.20717142 0 0 1 0.20717,0.2072 z m 0,3.3148 v 0.4143 a 0.20717142,0.20717142 0 0 1 -0.20717,0.2072 h -0.621516 v 0.2071 a 0.20717142,0.20717142 0 0 1 -0.207169,0.2072 h -1.450201 v -1.6574 h 1.450201 a 0.20717142,0.20717142 0 0 1 0.207169,0.2072 v 0.2072 h 0.621516 a 0.20717142,0.20717142 0 0 1 0.20717,0.2072 z m -16.642772,-0.6216 h 1.450201 v 1.6574 h -1.450201 a 0.20717142,0.20717142 0 0 1 -0.207169,-0.2072 v -0.2071 H 67.70809 a 0.20717142,0.20717142 0 0 1 -0.207169,-0.2072 v -0.4143 a 0.20717142,0.20717142 0 0 1 0.207169,-0.2072 h 0.621516 v -0.2072 a 0.20717142,0.20717142 0 0 1 0.207169,-0.2072 z m 0,-3.3147 h 1.450201 v 1.6574 h -1.450201 a 0.20717142,0.20717142 0 0 1 -0.207169,-0.2072 v -0.2072 H 67.70809 a 0.20717142,0.20717142 0 0 1 -0.207169,-0.2071 v -0.4144 a 0.20717142,0.20717142 0 0 1 0.207169,-0.2072 h 0.621516 v -0.2071 a 0.20717142,0.20717142 0 0 1 0.207169,-0.2072 z m 0,-3.3147 h 1.450201 v 1.6573 h -1.450201 a 0.20717142,0.20717142 0 0 1 -0.207169,-0.2071 v -0.2072 H 67.70809 a 0.20717142,0.20717142 0 0 1 -0.207169,-0.2072 v -0.4143 a 0.20717142,0.20717142 0 0 1 0.207169,-0.2072 h 0.621516 v -0.2072 a 0.20717142,0.20717142 0 0 1 0.207169,-0.2071 z m 0,-3.3148 h 1.450201 v 1.6574 h -1.450201 a 0.20717142,0.20717142 0 0 1 -0.207169,-0.2072 v -0.2072 H 67.70809 a 0.20717142,0.20717142 0 0 1 -0.207169,-0.2071 v -0.4144 a 0.20717142,0.20717142 0 0 1 0.207169,-0.2071 h 0.621516 v -0.2072 a 0.20717142,0.20717142 0 0 1 0.207169,-0.2072 z"
       id="path5140"
       style="fill:#ffffff;fill-opacity:1;stroke-width:0.04133052" />
    <path
       d="m 44.805526,82.786815 h 0.414343 v 0.5525 c 0,0.3052 0.247226,0.5524 0.552461,0.5524 h 1.381142 c 0.30523,0 0.552456,-0.2472 0.552456,-0.5524 v -0.5525 h 0.414343 c 0.610121,0 1.104914,-0.4948 1.104914,-1.1049 v -7.7344 c 0,-0.6101 -0.494793,-1.1049 -1.104914,-1.1049 v -0.5525 c 0,-0.3052 -0.247227,-0.5524 -0.552457,-0.5524 h -2.209827 c -0.305234,0 -0.552461,0.2472 -0.552461,0.5524 v 0.5525 c -0.610117,0 -1.104913,0.4948 -1.104913,1.1049 v 7.7344 c 0,0.6101 0.494796,1.1049 1.104913,1.1049 z m 10.496688,4.4197 h -0.04454 c 1.054155,-1.1743 1.701912,-2.7209 1.701912,-4.4197 0,-3.6559 -2.973599,-6.6295 -6.629486,-6.6295 v 2.2099 c 2.437025,0 4.419659,1.9826 4.419659,4.4196 0,2.437 -1.982634,4.4197 -4.419659,4.4197 h -9.391769 c -0.915353,0 -1.657372,0.742 -1.657372,1.6573 0,0.3053 0.247225,0.5525 0.552457,0.5525 h 16.573713 c 0.30523,0 0.552457,-0.2472 0.552457,-0.5525 0,-0.9153 -0.742019,-1.6573 -1.65737,-1.6573 z m -12.430287,-1.1049 h 7.181943 c 0.152617,0 0.276228,-0.1237 0.276228,-0.2763 v -0.5524 c 0,-0.1526 -0.123611,-0.2763 -0.276228,-0.2763 h -7.181943 c -0.152617,0 -0.276228,0.1237 -0.276228,0.2763 v 0.5524 c 0,0.1526 0.123611,0.2763 0.276228,0.2763 z"
       id="path5708"
       style="fill:#ffffff;fill-opacity:1;stroke-width:0.04133052" />
    <path
       d="m 26.319704,68.899915 c -0.864941,0.7019 -1.817239,1.2838 -2.849988,1.6936 l 1.877664,3.2523 1.862816,0.7955 c 0.338725,0.1447 0.721301,-0.076 0.765498,-0.442 l 0.242391,-2.0113 z m 1.467119,-3.265 c 0.167809,-0.2649 0.06526,-0.6212 -0.208898,-0.7731 l -0.969217,-0.5376 c -0.258274,-0.1433 -0.57352,-0.05 -0.734077,0.1975 -1.41947,2.1936 -3.862712,3.535 -6.495515,3.535 -0.826269,0 -1.630784,-0.1468 -2.396628,-0.3981 l 2.325845,-4.0288 c 0.02417,7e-4 0.04627,0.01 0.07044,0.01 0.02417,0 0.04661,-0.01 0.07044,-0.01 l 1.764065,3.0558 c 1.078327,-0.3094 2.056521,-0.8891 2.852405,-1.6892 l -1.788235,-3.0975 c 0.257238,-0.4707 0.416415,-1.0024 0.416415,-1.5766 0,-1.8307 -1.484038,-3.3147 -3.314743,-3.3147 -1.830705,0 -3.314742,1.484 -3.314742,3.3147 0,0.5742 0.159176,1.1059 0.416069,1.5766 l -2.358302,4.085 c -0.433333,-0.4008 -0.827304,-0.849 -1.162922,-1.3466 -0.165391,-0.2451 -0.482364,-0.3321 -0.738221,-0.184 l -0.958167,0.5549 c -0.27105,0.1567 -0.367039,0.5144 -0.194742,0.7758 0.53761,0.8163 1.197796,1.5265 1.93291,2.1415 l -2.461197,4.2629 0.242391,2.0113 c 0.0442,0.3656 0.426773,0.5866 0.765498,0.4419 l 1.862816,-0.7955 2.444623,-4.2342 c 1.111475,0.4226 2.302365,0.6546 3.523986,0.6546 3.420055,0 6.590813,-1.7613 8.407707,-4.6316 z m -8.407707,-6.4175 c 0.61012,0 1.104914,0.4948 1.104914,1.1049 0,0.6101 -0.494794,1.1049 -1.104914,1.1049 -0.610119,0 -1.104914,-0.4948 -1.104914,-1.1049 0,-0.6101 0.494795,-1.1049 1.104914,-1.1049 z"
       id="path6276"
       style="fill:#ffffff;fill-opacity:1;stroke-width:0.04133052" />
    <path
       d="m 84.533575,70.940015 -4.046745,-6.5087 v -5.2138 h 0.276228 c 0.459228,0 0.828685,-0.3694 0.828685,-0.8287 v -0.5524 c 0,-0.4593 -0.369457,-0.8287 -0.828685,-0.8287 h -7.181942 c -0.459232,0 -0.82869,0.3694 -0.82869,0.8287 v 0.5524 c 0,0.4593 0.369458,0.8287 0.82869,0.8287 h 0.276228 v 5.2138 l -4.04675,6.5087 c -1.011688,1.6263 0.155378,3.7463 2.075168,3.7463 h 10.572649 c 1.923242,0 3.086853,-2.1235 2.075164,-3.7463 z m -10.334399,-2.8832 1.664277,-2.6794 c 0.127757,-0.1795 0.200263,-0.4005 0.200263,-0.6353 v -5.5246 h 2.209831 v 5.5246 c 0,0.2382 0.07596,0.4558 0.200267,0.6353 l 1.664277,2.6794 z"
       id="path6844"
       style="fill:#ffffff;fill-opacity:1;stroke-width:0.04133052" />
    <path
       d="m 43.060498,16.534715 4.646856,-4.6462 -1.523401,-1.5234 -2.129721,2.1298 a 0.27343174,0.27343174 0 0 1 -0.387068,0 l -0.387065,-0.3871 c -0.107038,-0.107 -0.107038,-0.2804 0,-0.3871 l 2.129725,-2.1297004 -1.161541,-1.1619 c -0.427812,-0.4278 -1.121144,-0.4278 -1.548952,0 l -3.097559,3.0976004 c -0.427464,0.4278 -0.427809,1.1211 0,1.5489 z m 13.413316,-4.0329 c 0.647753,-0.6478 0.647409,-1.6978 0,-2.3456 L 54.911392,8.5938146 c -0.647752,-0.6477 -1.698114,-0.6477 -2.346214,0 l -1.589005,1.5887004 3.908635,3.9086 z m -6.279024,-1.5376 -10.254983,10.2536 -0.647756,3.7098 c -0.08736,0.5003 0.348393,0.936 0.849057,0.848 l 3.710096,-0.6505 10.252222,-10.2526 z m 6.444069,9.8555 -1.16154,-1.1615 -2.129725,2.1297 c -0.107038,0.107 -0.28037,0.107 -0.387064,0 l -0.387065,-0.3871 c -0.106695,-0.107 -0.106695,-0.2803 0,-0.387 l 2.129721,-2.1298 -1.524088,-1.5241 -4.646857,4.6462 3.460109,3.4598 c 0.427808,0.4278 1.12114,0.4278 1.548952,0 l 3.097557,-3.0972 c 0.427808,-0.4279 0.427808,-1.1212 0,-1.549 z"
       id="path7412"
       style="fill:#ffffff;fill-opacity:1;stroke-width:0.04133052" />
    <path
       d="m 34.214818,36.748515 c -5.316704,5.7767 -4.028182,16.542 2.876461,24.0439 6.904642,7.502 16.811145,8.9002 22.127859,3.1236 5.316714,-5.7767 4.031856,-16.5424 -2.872797,-24.0444 -6.904642,-7.502 -16.814809,-8.8997 -22.131523,-3.1231 z m 4.821087,2.3997 c 4.177527,-4.539 11.858579,-3.5516 17.157449,2.2056 5.298878,5.7573 6.207587,14.1029 2.030058,18.6418 -4.177527,4.5389 -11.860595,3.5538 -17.159474,-2.2035 -5.298878,-5.7573 -6.20556,-14.105 -2.028033,-18.6439 z"
       id="path5874"
       style="fill:url(#radialGradient3033);fill-opacity:1;stroke:none;stroke-width:0.37261271" />
    <rect
       width="4.4510388"
       height="4.4501734"
       rx="0.28675887"
       ry="0.28675884"
       x="53.605068"
       y="38.800095"
       id="rect5876"
       style="fill:#ff7f2a;fill-opacity:1;fill-rule:nonzero;stroke:#d45500;stroke-width:0.69999999;stroke-miterlimit:4;stroke-dasharray:none" />
    <rect
       width="10.483762"
       height="10.481723"
       rx="0.6754182"
       ry="0.67541808"
       x="28.58124"
       y="44.662888"
       id="rect5878"
       style="fill:#ff7f2a;fill-opacity:1;fill-rule:nonzero;stroke:#d45500;stroke-width:0.69999999;stroke-miterlimit:4;stroke-dasharray:none" />
    <rect
       width="6.3337369"
       height="6.3325052"
       rx="0.408052"
       ry="0.40805197"
       x="55.675312"
       y="58.384567"
       id="rect5880"
       style="fill:#ff7f2a;fill-opacity:1;fill-rule:nonzero;stroke:#d45500;stroke-width:0.69999999;stroke-miterlimit:4;stroke-dasharray:none" />
  </g>
</svg>
